<mxfile host="app.diagrams.net" modified="2024-02-22T00:46:16.016Z" agent="Mozilla/5.0 (Macintosh; Intel Mac OS X 10_15_7) AppleWebKit/537.36 (KHTML, like Gecko) Chrome/121.0.0.0 Safari/537.36" version="23.1.5" etag="_1fWYaxWywChG5jRRsjG" type="github">
  <diagram name="第 1 页" id="_xTWLvmlFtbh9TY_dWJq">
    <mxGraphModel>
      <root>
        <mxCell id="0" />
        <mxCell id="1" parent="0" />
      </root>
    </mxGraphModel>
  </diagram>
</mxfile>
